solid untitled
facet normal 0.0 -1.0 0.0
outer loop
vertex 4.25490607382952 0.793486166432169 1.13
vertex 1.79490607382953 0.793486166432169 1.1
vertex 4.25490607382952 0.793486166432169 1.1
endloop
endfacet
facet normal 0.0 -1.0 0.0
outer loop
vertex 1.79490607382953 0.793486166432169 1.1
vertex 4.25490607382952 0.793486166432169 1.13
vertex 1.79490607382953 0.793486166432169 1.13
endloop
endfacet
facet normal 1.11907540148502e-19 -2.84548748916368e-18 -1.0
outer loop
vertex 2.09828500447656 1.99672960851538 1.1
vertex 1.79490607382953 0.793486166432169 1.1
vertex 1.79490607382953 1.99672960851538 1.1
endloop
endfacet
facet normal 1.11907540148502e-19 -2.84548748916368e-18 -1.0
outer loop
vertex 1.79490607382953 0.793486166432169 1.1
vertex 2.09828500447656 1.99672960851538 1.1
vertex 2.09828500447656 1.44348616643217 1.1
endloop
endfacet
facet normal 1.11907540148502e-19 -2.84548748916368e-18 -1.0
outer loop
vertex 1.79490607382953 0.793486166432169 1.1
vertex 2.09828500447656 1.44348616643217 1.1
vertex 4.25490607382952 0.793486166432169 1.1
endloop
endfacet
facet normal 1.11907540148502e-19 -2.84548748916368e-18 -1.0
outer loop
vertex 4.25490607382952 0.793486166432169 1.1
vertex 2.09828500447656 1.44348616643217 1.1
vertex 4.25490607382952 1.44348616643217 1.1
endloop
endfacet
facet normal 8.56820894021046e-36 1.0 -2.84548748916368e-18
outer loop
vertex 2.09828500447656 1.44348616643217 1.13
vertex 4.25490607382952 1.44348616643217 1.1
vertex 2.09828500447656 1.44348616643217 1.1
endloop
endfacet
facet normal 8.56820894021046e-36 1.0 -2.84548748916368e-18
outer loop
vertex 4.25490607382952 1.44348616643217 1.1
vertex 2.09828500447656 1.44348616643217 1.13
vertex 4.25490607382952 1.44348616643217 1.13
endloop
endfacet
facet normal -3.17380913839576e-35 1.0 -2.84548748916368e-18
outer loop
vertex 1.79490607382953 1.99672960851538 1.13
vertex 2.09828500447656 1.99672960851538 1.1
vertex 1.79490607382953 1.99672960851538 1.1
endloop
endfacet
facet normal -3.17380913839576e-35 1.0 -2.84548748916368e-18
outer loop
vertex 2.09828500447656 1.99672960851538 1.1
vertex 1.79490607382953 1.99672960851538 1.13
vertex 2.09828500447656 1.99672960851538 1.13
endloop
endfacet
facet normal -1.0 -0.0 -1.11907540148502e-19
outer loop
vertex 1.79490607382953 1.44348616643217 1.13
vertex 1.79490607382953 0.793486166432169 1.1
vertex 1.79490607382953 0.793486166432169 1.13
endloop
endfacet
facet normal -1.0 -0.0 -1.11907540148502e-19
outer loop
vertex 1.79490607382953 0.793486166432169 1.1
vertex 1.79490607382953 1.44348616643217 1.13
vertex 1.79490607382953 1.99672960851538 1.1
endloop
endfacet
facet normal -1.0 -0.0 -1.11907540148502e-19
outer loop
vertex 1.79490607382953 1.99672960851538 1.1
vertex 1.79490607382953 1.44348616643217 1.13
vertex 1.79490607382953 1.99672960851538 1.13
endloop
endfacet
facet normal 1.0 0.0 1.11907540148502e-19
outer loop
vertex 2.09828500447656 1.99672960851538 1.1
vertex 2.09828500447656 1.44348616643217 1.13
vertex 2.09828500447656 1.44348616643217 1.1
endloop
endfacet
facet normal 1.0 0.0 1.11907540148502e-19
outer loop
vertex 2.09828500447656 1.44348616643217 1.13
vertex 2.09828500447656 1.99672960851538 1.1
vertex 2.09828500447656 1.99672960851538 1.13
endloop
endfacet
facet normal 0.0 0.0 1.0
outer loop
vertex 4.25490607382952 0.793486166432169 1.13
vertex 1.79490607382953 1.44348616643217 1.13
vertex 1.79490607382953 0.793486166432169 1.13
endloop
endfacet
facet normal 0.0 0.0 1.0
outer loop
vertex 1.79490607382953 1.44348616643217 1.13
vertex 4.25490607382952 0.793486166432169 1.13
vertex 2.09828500447656 1.44348616643217 1.13
endloop
endfacet
facet normal 0.0 0.0 1.0
outer loop
vertex 2.09828500447656 1.44348616643217 1.13
vertex 4.25490607382952 0.793486166432169 1.13
vertex 4.25490607382952 1.44348616643217 1.13
endloop
endfacet
facet normal 1.0 0.0 1.11907540148502e-19
outer loop
vertex 4.25490607382952 1.44348616643217 1.1
vertex 4.25490607382952 0.793486166432169 1.13
vertex 4.25490607382952 0.793486166432169 1.1
endloop
endfacet
facet normal 1.0 0.0 1.11907540148502e-19
outer loop
vertex 4.25490607382952 0.793486166432169 1.13
vertex 4.25490607382952 1.44348616643217 1.1
vertex 4.25490607382952 1.44348616643217 1.13
endloop
endfacet
facet normal 0.0 0.0 1.0
outer loop
vertex 2.09828500447656 1.44348616643217 1.13
vertex 1.79490607382953 1.99672960851538 1.13
vertex 1.79490607382953 1.44348616643217 1.13
endloop
endfacet
facet normal 0.0 0.0 1.0
outer loop
vertex 1.79490607382953 1.99672960851538 1.13
vertex 2.09828500447656 1.44348616643217 1.13
vertex 2.09828500447656 1.99672960851538 1.13
endloop
endfacet
facet normal 0.0 0.0 -1.0
outer loop
vertex 1.96828500447658 1.99672960851538 3.60955709766131e-16
vertex 1.91828500447658 1.10682619971825 3.60955709766131e-16
vertex 1.91828500447658 1.99672960851538 3.60955709766131e-16
endloop
endfacet
facet normal 0.0 0.0 -1.0
outer loop
vertex 1.91828500447658 1.10682619971825 3.60955709766131e-16
vertex 1.96828500447658 1.99672960851538 3.60955709766131e-16
vertex 1.96828500447658 1.10682619971825 3.60955709766131e-16
endloop
endfacet
facet normal 0.0 0.0 1.0
outer loop
vertex 1.96828500447658 1.10682619971825 1.1
vertex 1.91828500447658 1.99672960851538 1.1
vertex 1.91828500447658 1.10682619971825 1.1
endloop
endfacet
facet normal 0.0 0.0 1.0
outer loop
vertex 1.91828500447658 1.99672960851538 1.1
vertex 1.96828500447658 1.10682619971825 1.1
vertex 1.96828500447658 1.99672960851538 1.1
endloop
endfacet
facet normal -0.0 -1.0 -0.0
outer loop
vertex 1.96828500447658 1.10682619971825 1.1
vertex 1.91828500447658 1.10682619971825 3.60955709766131e-16
vertex 1.96828500447658 1.10682619971825 3.60955709766131e-16
endloop
endfacet
facet normal -0.0 -1.0 -0.0
outer loop
vertex 1.91828500447658 1.10682619971825 3.60955709766131e-16
vertex 1.96828500447658 1.10682619971825 1.1
vertex 1.91828500447658 1.10682619971825 1.1
endloop
endfacet
facet normal -1.0 0.0 0.0
outer loop
vertex 1.91828500447658 1.99672960851538 1.1
vertex 1.91828500447658 1.10682619971825 3.60955709766131e-16
vertex 1.91828500447658 1.10682619971825 1.1
endloop
endfacet
facet normal -1.0 0.0 0.0
outer loop
vertex 1.91828500447658 1.10682619971825 3.60955709766131e-16
vertex 1.91828500447658 1.99672960851538 1.1
vertex 1.91828500447658 1.99672960851538 3.60955709766131e-16
endloop
endfacet
facet normal 0.0 1.0 0.0
outer loop
vertex 1.91828500447658 1.99672960851538 1.1
vertex 1.96828500447658 1.99672960851538 3.60955709766131e-16
vertex 1.91828500447658 1.99672960851538 3.60955709766131e-16
endloop
endfacet
facet normal 0.0 1.0 0.0
outer loop
vertex 1.96828500447658 1.99672960851538 3.60955709766131e-16
vertex 1.91828500447658 1.99672960851538 1.1
vertex 1.96828500447658 1.99672960851538 1.1
endloop
endfacet
facet normal 1.0 0.0 0.0
outer loop
vertex 1.96828500447658 1.99672960851538 3.60955709766131e-16
vertex 1.96828500447658 1.10682619971825 1.1
vertex 1.96828500447658 1.10682619971825 3.60955709766131e-16
endloop
endfacet
facet normal 1.0 0.0 0.0
outer loop
vertex 1.96828500447658 1.10682619971825 1.1
vertex 1.96828500447658 1.99672960851538 3.60955709766131e-16
vertex 1.96828500447658 1.99672960851538 1.1
endloop
endfacet
facet normal 0.0 1.0 0.0
outer loop
vertex 1.91828500447658 1.10682619971825 1.1
vertex 4.13490607382951 1.10682619971825 4.51194637207664e-16
vertex 1.91828500447658 1.10682619971825 4.51194637207664e-16
endloop
endfacet
facet normal 0.0 1.0 0.0
outer loop
vertex 4.13490607382951 1.10682619971825 4.51194637207664e-16
vertex 1.91828500447658 1.10682619971825 1.1
vertex 4.13490607382951 1.10682619971825 1.1
endloop
endfacet
facet normal 0.0 0.0 1.0
outer loop
vertex 4.13490607382951 1.05682619971825 1.1
vertex 1.91828500447658 1.10682619971825 1.1
vertex 1.91828500447658 1.05682619971825 1.1
endloop
endfacet
facet normal 0.0 0.0 1.0
outer loop
vertex 1.91828500447658 1.10682619971825 1.1
vertex 4.13490607382951 1.05682619971825 1.1
vertex 4.13490607382951 1.10682619971825 1.1
endloop
endfacet
facet normal 1.0 0.0 0.0
outer loop
vertex 4.13490607382951 1.10682619971825 4.51194637207664e-16
vertex 4.13490607382951 1.05682619971825 1.1
vertex 4.13490607382951 1.05682619971825 4.51194637207664e-16
endloop
endfacet
facet normal 1.0 0.0 0.0
outer loop
vertex 4.13490607382951 1.05682619971825 1.1
vertex 4.13490607382951 1.10682619971825 4.51194637207664e-16
vertex 4.13490607382951 1.10682619971825 1.1
endloop
endfacet
facet normal -1.0 0.0 0.0
outer loop
vertex 1.91828500447658 1.10682619971825 1.1
vertex 1.91828500447658 1.05682619971825 4.51194637207664e-16
vertex 1.91828500447658 1.05682619971825 1.1
endloop
endfacet
facet normal -1.0 0.0 0.0
outer loop
vertex 1.91828500447658 1.05682619971825 4.51194637207664e-16
vertex 1.91828500447658 1.10682619971825 1.1
vertex 1.91828500447658 1.10682619971825 4.51194637207664e-16
endloop
endfacet
facet normal -0.0 -1.0 -0.0
outer loop
vertex 4.13490607382951 1.05682619971825 1.1
vertex 1.91828500447658 1.05682619971825 4.51194637207664e-16
vertex 4.13490607382951 1.05682619971825 4.51194637207664e-16
endloop
endfacet
facet normal -0.0 -1.0 -0.0
outer loop
vertex 1.91828500447658 1.05682619971825 4.51194637207664e-16
vertex 4.13490607382951 1.05682619971825 1.1
vertex 1.91828500447658 1.05682619971825 1.1
endloop
endfacet
facet normal 0.0 0.0 -1.0
outer loop
vertex 4.13490607382951 1.10682619971825 4.51194637207664e-16
vertex 1.91828500447658 1.05682619971825 4.51194637207664e-16
vertex 1.91828500447658 1.10682619971825 4.51194637207664e-16
endloop
endfacet
facet normal 0.0 0.0 -1.0
outer loop
vertex 1.91828500447658 1.05682619971825 4.51194637207664e-16
vertex 4.13490607382951 1.10682619971825 4.51194637207664e-16
vertex 4.13490607382951 1.05682619971825 4.51194637207664e-16
endloop
endfacet
facet normal 0.0 0.0 -1.0
outer loop
vertex 2.94678667775202 1.99672960851538 4.51194637207664e-16
vertex 2.89678667775202 1.10672960851538 4.51194637207664e-16
vertex 2.89678667775202 1.99672960851538 4.51194637207664e-16
endloop
endfacet
facet normal 0.0 0.0 -1.0
outer loop
vertex 2.89678667775202 1.10672960851538 4.51194637207664e-16
vertex 2.94678667775202 1.99672960851538 4.51194637207664e-16
vertex 2.94678667775202 1.10672960851538 4.51194637207664e-16
endloop
endfacet
facet normal -1.0 1.11015154123009e-15 1.36450182192567e-15
outer loop
vertex 2.89678667775202 1.44348616643217 1.1
vertex 2.89678667775202 1.10672960851538 4.51194637207664e-16
vertex 2.89678667775202 1.10672960851538 1.1
endloop
endfacet
facet normal -1.0 1.11015154123009e-15 1.36450182192567e-15
outer loop
vertex 2.89678667775202 1.10672960851538 4.51194637207664e-16
vertex 2.89678667775202 1.44348616643217 1.1
vertex 2.89678667775202 1.44348616643217 0.910000000000001
endloop
endfacet
facet normal -1.0 1.11015154123009e-15 1.36450182192567e-15
outer loop
vertex 2.89678667775202 1.10672960851538 4.51194637207664e-16
vertex 2.89678667775202 1.44348616643217 0.910000000000001
vertex 2.89678667775202 1.99672960851538 4.51194637207664e-16
endloop
endfacet
facet normal -1.0 1.11015154123009e-15 1.36450182192567e-15
outer loop
vertex 2.89678667775202 1.99672960851538 4.51194637207664e-16
vertex 2.89678667775202 1.44348616643217 0.910000000000001
vertex 2.89678667775202 1.99672960851538 0.910000000000001
endloop
endfacet
facet normal 0.0 1.0 0.0
outer loop
vertex 2.89678667775202 1.99672960851538 0.910000000000001
vertex 2.94678667775202 1.99672960851538 4.51194637207664e-16
vertex 2.89678667775202 1.99672960851538 4.51194637207664e-16
endloop
endfacet
facet normal 0.0 1.0 0.0
outer loop
vertex 2.94678667775202 1.99672960851538 4.51194637207664e-16
vertex 2.89678667775202 1.99672960851538 0.910000000000001
vertex 2.94678667775202 1.99672960851538 0.910000000000001
endloop
endfacet
facet normal 1.0 0.0 0.0
outer loop
vertex 2.94678667775202 1.99672960851538 4.51194637207664e-16
vertex 2.94678667775202 1.10672960851538 1.1
vertex 2.94678667775202 1.10672960851538 4.51194637207664e-16
endloop
endfacet
facet normal 1.0 0.0 0.0
outer loop
vertex 2.94678667775202 1.10672960851538 1.1
vertex 2.94678667775202 1.99672960851538 4.51194637207664e-16
vertex 2.94678667775202 1.44348616643217 0.910000000000001
endloop
endfacet
facet normal 1.0 0.0 0.0
outer loop
vertex 2.94678667775202 1.44348616643217 0.910000000000001
vertex 2.94678667775202 1.99672960851538 4.51194637207664e-16
vertex 2.94678667775202 1.99672960851538 0.910000000000001
endloop
endfacet
facet normal 1.0 0.0 0.0
outer loop
vertex 2.94678667775202 1.44348616643217 1.1
vertex 2.94678667775202 1.10672960851538 1.1
vertex 2.94678667775202 1.44348616643217 0.910000000000001
endloop
endfacet
facet normal -0.0 -1.0 -0.0
outer loop
vertex 2.94678667775202 1.10672960851538 1.1
vertex 2.89678667775202 1.10672960851538 4.51194637207664e-16
vertex 2.94678667775202 1.10672960851538 4.51194637207664e-16
endloop
endfacet
facet normal -0.0 -1.0 -0.0
outer loop
vertex 2.89678667775202 1.10672960851538 4.51194637207664e-16
vertex 2.94678667775202 1.10672960851538 1.1
vertex 2.89678667775202 1.10672960851538 1.1
endloop
endfacet
facet normal -2.94529998213419e-31 2.67964870527718e-15 1.0
outer loop
vertex 2.94678667775202 1.10672960851538 1.1
vertex 2.89678667775202 1.44348616643217 1.1
vertex 2.89678667775202 1.10672960851538 1.1
endloop
endfacet
facet normal -2.94529998213419e-31 2.67964870527718e-15 1.0
outer loop
vertex 2.89678667775202 1.44348616643217 1.1
vertex 2.94678667775202 1.10672960851538 1.1
vertex 2.94678667775202 1.44348616643217 1.1
endloop
endfacet
facet normal 0.0 1.0 0.0
outer loop
vertex 2.89678667775202 1.44348616643217 1.1
vertex 2.94678667775202 1.44348616643217 0.910000000000001
vertex 2.89678667775202 1.44348616643217 0.910000000000001
endloop
endfacet
facet normal 0.0 1.0 0.0
outer loop
vertex 2.94678667775202 1.44348616643217 0.910000000000001
vertex 2.89678667775202 1.44348616643217 1.1
vertex 2.94678667775202 1.44348616643217 1.1
endloop
endfacet
facet normal 0.0 0.0 1.0
outer loop
vertex 2.94678667775202 1.44348616643217 0.910000000000001
vertex 2.89678667775202 1.99672960851538 0.910000000000001
vertex 2.89678667775202 1.44348616643217 0.910000000000001
endloop
endfacet
facet normal 0.0 0.0 1.0
outer loop
vertex 2.89678667775202 1.99672960851538 0.910000000000001
vertex 2.94678667775202 1.44348616643217 0.910000000000001
vertex 2.94678667775202 1.99672960851538 0.910000000000001
endloop
endfacet
facet normal -0.0 -1.0 -0.0
outer loop
vertex 2.89346243250725 1.10682619971825 0.950000000000001
vertex 1.96828500447658 1.10682619971825 0.910000000000001
vertex 2.89346243250725 1.10682619971825 0.910000000000001
endloop
endfacet
facet normal -0.0 -1.0 -0.0
outer loop
vertex 1.96828500447658 1.10682619971825 0.910000000000001
vertex 2.89346243250725 1.10682619971825 0.950000000000001
vertex 1.96828500447658 1.10682619971825 0.950000000000001
endloop
endfacet
facet normal -1.0 0.0 0.0
outer loop
vertex 1.96828500447658 1.99672960851538 0.950000000000001
vertex 1.96828500447658 1.10682619971825 0.910000000000001
vertex 1.96828500447658 1.10682619971825 0.950000000000001
endloop
endfacet
facet normal -1.0 0.0 0.0
outer loop
vertex 1.96828500447658 1.10682619971825 0.910000000000001
vertex 1.96828500447658 1.99672960851538 0.950000000000001
vertex 1.96828500447658 1.99672960851538 0.910000000000001
endloop
endfacet
facet normal 0.0 0.0 1.0
outer loop
vertex 2.89346243250725 1.10682619971825 0.950000000000001
vertex 1.96828500447658 1.99672960851538 0.950000000000001
vertex 1.96828500447658 1.10682619971825 0.950000000000001
endloop
endfacet
facet normal 0.0 0.0 1.0
outer loop
vertex 1.96828500447658 1.99672960851538 0.950000000000001
vertex 2.89346243250725 1.10682619971825 0.950000000000001
vertex 2.89346243250725 1.44348616643217 0.950000000000001
endloop
endfacet
facet normal 0.0 0.0 1.0
outer loop
vertex 1.96828500447658 1.99672960851538 0.950000000000001
vertex 2.89346243250725 1.44348616643217 0.950000000000001
vertex 2.94678667775202 1.99672960851538 0.950000000000001
endloop
endfacet
facet normal 0.0 0.0 1.0
outer loop
vertex 2.94678667775202 1.99672960851538 0.950000000000001
vertex 2.89346243250725 1.44348616643217 0.950000000000001
vertex 2.94678667775202 1.44348616643217 0.950000000000001
endloop
endfacet
facet normal 0.0 1.0 0.0
outer loop
vertex 1.96828500447658 1.99672960851538 0.950000000000001
vertex 2.94678667775202 1.99672960851538 0.910000000000001
vertex 1.96828500447658 1.99672960851538 0.910000000000001
endloop
endfacet
facet normal 0.0 1.0 0.0
outer loop
vertex 2.94678667775202 1.99672960851538 0.910000000000001
vertex 1.96828500447658 1.99672960851538 0.950000000000001
vertex 2.94678667775202 1.99672960851538 0.950000000000001
endloop
endfacet
facet normal 0.0 0.0 -1.0
outer loop
vertex 2.94678667775202 1.99672960851538 0.910000000000001
vertex 1.96828500447658 1.10682619971825 0.910000000000001
vertex 1.96828500447658 1.99672960851538 0.910000000000001
endloop
endfacet
facet normal 0.0 0.0 -1.0
outer loop
vertex 1.96828500447658 1.10682619971825 0.910000000000001
vertex 2.94678667775202 1.99672960851538 0.910000000000001
vertex 2.89346243250725 1.44348616643217 0.910000000000001
endloop
endfacet
facet normal 0.0 0.0 -1.0
outer loop
vertex 2.89346243250725 1.44348616643217 0.910000000000001
vertex 2.94678667775202 1.99672960851538 0.910000000000001
vertex 2.89448295620209 1.44348616643217 0.910000000000001
endloop
endfacet
facet normal 0.0 0.0 -1.0
outer loop
vertex 2.89448295620209 1.44348616643217 0.910000000000001
vertex 2.94678667775202 1.99672960851538 0.910000000000001
vertex 2.94678667775202 1.44348616643217 0.910000000000001
endloop
endfacet
facet normal 0.0 0.0 -1.0
outer loop
vertex 2.89346243250725 1.10682619971825 0.910000000000001
vertex 1.96828500447658 1.10682619971825 0.910000000000001
vertex 2.89346243250725 1.44348616643217 0.910000000000001
endloop
endfacet
facet normal 1.0 0.0 0.0
outer loop
vertex 2.94678667775202 1.99672960851538 0.910000000000001
vertex 2.94678667775202 1.44348616643217 0.950000000000001
vertex 2.94678667775202 1.44348616643217 0.910000000000001
endloop
endfacet
facet normal 1.0 0.0 0.0
outer loop
vertex 2.94678667775202 1.44348616643217 0.950000000000001
vertex 2.94678667775202 1.99672960851538 0.910000000000001
vertex 2.94678667775202 1.99672960851538 0.950000000000001
endloop
endfacet
facet normal 0.0 -1.0 0.0
outer loop
vertex 2.89346243250725 1.44348616643217 0.950000000000001
vertex 2.89346243250725 1.44348616643217 0.910000000000001
vertex 2.89448295620209 1.44348616643217 0.910000000000001
endloop
endfacet
facet normal 0.0 -1.0 0.0
outer loop
vertex 2.94678667775202 1.44348616643217 0.950000000000001
vertex 2.89448295620209 1.44348616643217 0.910000000000001
vertex 2.94678667775202 1.44348616643217 0.910000000000001
endloop
endfacet
facet normal 0.0 -1.0 0.0
outer loop
vertex 2.89448295620209 1.44348616643217 0.910000000000001
vertex 2.94678667775202 1.44348616643217 0.950000000000001
vertex 2.89346243250725 1.44348616643217 0.950000000000001
endloop
endfacet
facet normal 1.0 0.0 0.0
outer loop
vertex 2.89346243250725 1.44348616643217 0.910000000000001
vertex 2.89346243250725 1.10682619971825 0.950000000000001
vertex 2.89346243250725 1.10682619971825 0.910000000000001
endloop
endfacet
facet normal 1.0 0.0 0.0
outer loop
vertex 2.89346243250725 1.10682619971825 0.950000000000001
vertex 2.89346243250725 1.44348616643217 0.910000000000001
vertex 2.89346243250725 1.44348616643217 0.950000000000001
endloop
endfacet
endsolid untitled
